<svg xmlns="http://www.w3.org/2000/svg" width="16" height="17.234" viewBox="0 0 16 17.234">
  <g id="Group_524" data-name="Group 524" transform="translate(558.796 354.004)">
    <path id="Path_335" data-name="Path 335" d="M-460-246.532v-1.221h1.213c0-1.128-.164-2.264.861-3.081-1-.832-.871-1.943-.854-3.073h-1.2v-1.2h7.336v1.138l-1.23.071c.028,1.123.112,2.238-.877,3.057,1,.849.89,1.974.882,3.087h1.224v1.225Zm2.44-7.375c0,.486-.025.921.006,1.353a1.206,1.206,0,0,0,1.186,1.112,1.232,1.232,0,0,0,1.246-1.058c.047-.456.009-.921.009-1.407Zm2.455,6.127c0-.457.021-.877,0-1.295a1.209,1.209,0,0,0-1.242-1.147,1.182,1.182,0,0,0-1.209,1.125c-.029.43-.005.863-.005,1.317Z" transform="translate(-90.149 -90.238)"/>
    <path id="Path_336" data-name="Path 336" d="M-546.491-346.66H-547.7v-.493q0-2.385,0-4.769c0-.652-.211-.859-.867-.86q-4.069,0-8.139,0c-.675,0-.87.2-.87.9q0,5.273,0,10.545c0,.693.194.889.877.89,1.734,0,3.468,0,5.238,0v1.22h-.435q-2.407,0-4.813,0a1.886,1.886,0,0,1-2.081-2.09q0-5.295,0-10.589A1.886,1.886,0,0,1-556.717-354q4.069,0,8.139,0a1.891,1.891,0,0,1,2.087,2.087C-546.489-350.181-546.491-348.448-546.491-346.66Z" transform="translate(0 0)"/>
    <path id="Path_337" data-name="Path 337" d="M-530.307-310.222v-1.139h7.3v1.139Z" transform="translate(-25.996 -38.91)"/>
    <path id="Path_338" data-name="Path 338" d="M-499.546-239.754H-501.9v-1.154h2.355Z" transform="translate(-51.915 -103.196)"/>
    <path id="Path_339" data-name="Path 339" d="M-502.055-267.858v-1.13h2.365v1.13Z" transform="translate(-51.775 -77.574)"/>
    <path id="Path_340" data-name="Path 340" d="M-529.1-240.991v1.152h-1.154v-1.152Z" transform="translate(-26.039 -103.121)"/>
    <path id="Path_341" data-name="Path 341" d="M-529.142-267.854h-1.147v-1.133h1.147Z" transform="translate(-26.012 -77.575)"/>
  </g>
</svg>
