<svg id="pen" xmlns="http://www.w3.org/2000/svg" width="12.853" height="12.853" viewBox="0 0 12.853 12.853">
  <path id="Path_85" data-name="Path 85" d="M12.382,1.607,11.246.471a1.606,1.606,0,0,0-2.272,0l-6.9,6.9A5.746,5.746,0,0,0,.8,9.306L0,12.853l3.546-.8a19.573,19.573,0,0,0,1.939-1.274l6.9-6.9A1.607,1.607,0,0,0,12.382,1.607ZM3.245,11.294l-2.18.494.522-2.3a.8.8,0,0,0,.016-.1s.006-.012.008-.016l1.816,1.817Zm1.674-1.088a7.992,7.992,0,0,1-.79.544L2.048,8.668a7.213,7.213,0,0,1,.6-.733L7.838,2.742,10.11,5.014Zm6.9-6.9L10.678,4.446,8.406,2.175,9.543,1.039a.8.8,0,0,1,1.136,0l1.136,1.136a.8.8,0,0,1,0,1.136Z"/>
</svg>
