<svg xmlns="http://www.w3.org/2000/svg" width="16.1" height="17.284" viewBox="0 0 16.1 17.284">
  <g id="Group_525" data-name="Group 525" transform="translate(-176.45 -293.921)">
    <path id="Path_342" data-name="Path 342" d="M132.14,119.922a24.832,24.832,0,0,0-4.174-2.717v-2.336a1.959,1.959,0,0,0,.617-1.433V110.4a3.353,3.353,0,0,0-3.352-3.352h-.654a3.353,3.353,0,0,0-3.352,3.352v3.034a1.988,1.988,0,0,0,.611,1.433v2.336a24.431,24.431,0,0,0-4.174,2.717,2.073,2.073,0,0,0-.76,1.614v2.081a.614.614,0,0,0,.617.617h14.766a.614.614,0,0,0,.617-.617v-2.081A2.073,2.073,0,0,0,132.14,119.922Zm-9.065-2.843v-1.744a3.875,3.875,0,0,0,1.805.555,4.3,4.3,0,0,0,1.865-.575v1.764a5.522,5.522,0,0,1-1.865.4A4.994,4.994,0,0,1,123.074,117.079Zm-.611-6.671a2.121,2.121,0,0,1,2.118-2.118h.654a2.121,2.121,0,0,1,2.118,2.118v3.034a.742.742,0,0,1-.336.623.6.6,0,0,0-.063.047,4.351,4.351,0,0,1-2.076.757,3.8,3.8,0,0,1-1.987-.726.609.609,0,0,0-.092-.077.75.75,0,0,1-.336-.623ZM131.673,123H118.14v-1.464a.848.848,0,0,1,.312-.66,23.345,23.345,0,0,1,4.2-2.7.74.74,0,0,0,.155-.1,8.015,8.015,0,0,0,2.074.316,8.768,8.768,0,0,0,2.133-.316.755.755,0,0,0,.156.1,24.013,24.013,0,0,1,4.193,2.7.848.848,0,0,1,.312.66Z" transform="translate(59.6 186.921)" stroke="#fff" stroke-width="0.1"/>
    <g id="Group_517" data-name="Group 517" transform="translate(181.606 304.931)">
      <path id="Path_331" data-name="Path 331" d="M-5862.48-9149.226v5.355" transform="translate(5862.48 9149.226)" fill="none" stroke="#000" stroke-width="2.8"/>
      <path id="Path_332" data-name="Path 332" d="M-5862.48-9149.226v5.355" transform="translate(5868.378 9149.226)" fill="none" stroke="#000" stroke-width="2.8"/>
    </g>
  </g>
</svg>
