<?xml version="1.0" encoding="utf-8"?>
<!-- Generator: Adobe Illustrator 19.0.0, SVG Export Plug-In . SVG Version: 6.00 Build 0)  -->
<svg version="1.1" id="Layer_1" xmlns="http://www.w3.org/2000/svg" xmlns:xlink="http://www.w3.org/1999/xlink" x="0px" y="0px"
	 viewBox="-275 361.1 59.6 70.9" style="enable-background:new -275 361.1 59.6 70.9;" xml:space="preserve">
<style type="text/css">
	.st0{enable-background:new    ;}
</style>
<g id="Group_567" transform="translate(-993.58 -2518)">
	<g id="Group_307" transform="translate(993.58 2518)">
		<g id="Group_305" transform="translate(15.402 17.844)">
			<g class="st0">
				<path d="M-275,363.9v-1.1h3.1v1.1h-1v6.2h-1.1v-6.2H-275z"/>
				<path d="M-269.1,370.1h-0.8l-1-7.3h1l0.4,3.8l0,0.2h0.1l0-0.2l0.5-3.8h0.8l0.5,3.8l0,0.2h0.1l0-0.2l0.4-3.8h1l-1,7.3h-0.8
					l-0.5-3.5l-0.1-0.4h0l-0.1,0.4L-269.1,370.1z"/>
				<path d="M-264.9,362.8h1.1v7.3h-1.1V362.8z"/>
				<path d="M-262.6,363.9v-1.1h3.1v1.1h-1v6.2h-1.1v-6.2H-262.6z"/>
				<path d="M-258.6,363.9v-1.1h3.1v1.1h-1v6.2h-1.1v-6.2H-258.6z"/>
				<path d="M-254.4,362.8h2.5v1.1h-1.4v1.9h1v1.2h-1v2h1.4v1.1h-2.5V362.8z"/>
				<path d="M-248.6,370.1l-0.6-3.1h-0.3v3.1h-1.1v-7.3h1.1c1.3,0,1.8,0.7,1.8,2.1c0,0.7-0.2,1.4-0.6,1.7l0.7,3.6H-248.6z
					 M-249.5,366c0.2,0,0.4,0,0.5-0.2c0.2-0.1,0.3-0.4,0.3-0.9c0-0.5-0.1-0.8-0.3-0.9c-0.2-0.1-0.4-0.1-0.5-0.1V366z"/>
			</g>
		</g>
		<g id="Group_306" transform="translate(0 0)">
			<g id="Path_230">
				<path d="M-215.4,377.7h-5.7c-0.1-0.6-0.3-1.3-0.4-2c-7.6-2.6-15.6-4-23.6-4.1h-0.1c-8,0.1-16,1.4-23.6,4.1
					c-0.2,0.7-0.3,1.3-0.4,2h-5.7v14.1l3.6,4.4c0,32.3,23.6,35.5,26.1,35.8v0l0.1,0l0.1,0v0c2.5-0.3,26.1-3.5,26.1-35.8l3.6-4.4
					L-215.4,377.7z M-245.2,373.9c7.3,0.1,14.6,1.4,21.5,3.7h-43.1C-259.8,375.3-252.5,374.1-245.2,373.9 M-273.7,379.1h56.6v11.3
					h-56.6V379.1z M-245.2,429.7c0,0-25.6-2.4-23.6-37.9h47.1C-219.6,427.3-245.2,429.7-245.2,429.7"/>
			</g>
			<g id="Path_231">
				<path d="M-251,361.1l1,1.9l2.1,0.3l-1.6,1.5l0.4,2.1l-1.9-1l-1.9,1l0.4-2.1l-1.6-1.5l2.1-0.3L-251,361.1z"/>
			</g>
			<g id="Path_232">
				<path d="M-262.7,362.7l1,1.9l2.1,0.3l-1.6,1.5l0.4,2.1l-1.9-1l-1.9,1l0.4-2.1l-1.6-1.5l2.1-0.3L-262.7,362.7z"/>
			</g>
			<g id="Path_233">
				<path d="M-239.4,361.1l-1,1.9l-2.1,0.3l1.6,1.5l-0.4,2.1l1.9-1l1.9,1l-0.4-2.1l1.6-1.5l-2.1-0.3L-239.4,361.1z"/>
			</g>
			<g id="Path_234">
				<path d="M-227.7,362.7l-1,1.9l-2.1,0.3l1.6,1.5l-0.4,2.1l1.9-1l1.9,1l-0.4-2.1l1.6-1.5l-2.1-0.3L-227.7,362.7z"/>
			</g>
		</g>
	</g>
	<g id="Path_238">
		<path d="M760.8,2917.4c-0.5,0.7-1,1.4-1.7,2c-0.1,0.1-0.2,0.2-0.3,0.3c-0.3,0.2-0.5,0.5-0.4,0.9c0,3.4-1.1,6.7-3.3,9.3
			c-2.2,2.8-5.4,4.7-8.9,5.2c-0.8,0.1-1.6,0.2-2.4,0.2c-2,0-4-0.4-5.8-1.2c-0.7-0.3-1.3-0.6-1.9-1.1c2.7,0.2,5.3-0.5,7.4-2.2
			c-2.2-0.1-4.1-1.5-4.8-3.6c0.3,0,0.5,0,0.7,0.1c0.4,0,0.8,0,1.2-0.1c0.1,0,0.1,0,0.1-0.1s-0.1-0.1-0.1-0.1
			c-0.4-0.2-0.8-0.4-1.2-0.6c-1.4-0.9-2.3-2.3-2.4-4c0-0.5,0-0.5,0.4-0.3c0.6,0.3,1.2,0.4,1.8,0.4c0-0.1-0.1-0.1-0.1-0.1
			c-1.4-1-2.2-2.7-2.1-4.4c0-0.8,0.2-1.5,0.6-2.2c0.1-0.2,0.1-0.1,0.2,0c1.9,2.3,4.6,4,7.5,4.8c0.9,0.2,1.8,0.4,2.7,0.4
			c0.2,0,0.2,0,0.2-0.2c-0.3-1.6,0.2-3.2,1.3-4.4c0.8-0.9,1.9-1.5,3.1-1.6c1.6-0.2,3.2,0.3,4.3,1.5c0.1,0.1,0.2,0.1,0.3,0.1
			c1-0.2,1.9-0.6,2.8-1c0.1,0,0.2-0.1,0.3-0.2c-0.4,1.1-1.1,2.1-2.1,2.8c0.6-0.1,1.2-0.2,1.8-0.4
			C760.2,2917.5,760.5,2917.4,760.8,2917.4L760.8,2917.4z"/>
	</g>
</g>
</svg>
