<svg width="60" height="72" viewBox="0 0 60 72" fill="none" xmlns="http://www.w3.org/2000/svg">
<g clip-path="url(#clip0)">
<path d="M17.4548 20.9294H16.0096V22.8013H16.9786V23.8771H16.0096V26.9798H14.9619V19.8525H17.4538L17.4548 20.9294Z" fill="black"/>
<path d="M18.3174 26.9803L19.3943 19.853H20.6734L21.7503 26.9803H20.7319L20.5375 25.526H19.5311L19.3368 26.9803H18.3174ZM20.0916 22.1707L20.0624 21.9866H20.0039L19.9746 22.1707L19.6727 24.42H20.3901L20.0916 22.1707Z" fill="black"/>
<path d="M25.6849 24.5367V25.516C25.681 25.7839 25.6218 26.048 25.5107 26.2919C25.4186 26.4989 25.2751 26.6791 25.094 26.8152C24.8618 26.9871 24.5773 27.0729 24.2889 27.0578C23.9975 27.0728 23.7095 26.9872 23.4736 26.8152C23.297 26.6781 23.1584 26.4979 23.0712 26.2919C22.9601 26.048 22.9009 25.7839 22.897 25.516V21.3173C22.9019 21.0528 22.9613 20.7921 23.0712 20.5515C23.1582 20.3425 23.2965 20.159 23.4736 20.0181C23.7117 19.8504 23.998 19.7652 24.2889 19.7755C24.5766 19.7655 24.8596 19.8508 25.094 20.0181C25.2756 20.1579 25.4191 20.3414 25.5107 20.5515C25.6206 20.7921 25.68 21.0528 25.6849 21.3173V22.2966H24.7058V21.3173C24.7159 21.1539 24.6601 20.9934 24.5508 20.8715C24.4827 20.8157 24.396 20.788 24.3083 20.794C24.1552 20.8002 24.0247 20.9069 23.9881 21.0556C23.9609 21.1404 23.9446 21.2284 23.9397 21.3173V25.516C23.9383 25.6798 23.997 25.8385 24.1048 25.9618C24.1586 26.0137 24.2314 26.0417 24.3061 26.0393C24.4744 26.0541 24.6277 25.9423 24.6653 25.7777C24.6955 25.6939 24.7088 25.6049 24.7046 25.516V24.5367H25.6849Z" fill="black"/>
<path d="M27.0435 19.853H29.4385V20.9299H28.0909V22.8017H29.0599V23.946H28.0909V25.9045H29.4385V26.9803H27.0435V19.853Z" fill="black"/>
<path d="M30.748 26.9802V19.853H31.6689C32.18 19.806 32.6896 19.9549 33.095 20.2697C33.4579 20.6705 33.6341 21.2061 33.58 21.744C33.5962 22.0254 33.5498 22.3069 33.4441 22.5682C33.3188 22.8178 33.1439 23.0391 32.9299 23.2184C33.2368 23.4213 33.4549 23.7332 33.5407 24.0909C33.6264 24.3735 33.6655 24.6683 33.6564 24.9635C33.6798 25.4456 33.5618 25.924 33.3173 26.3402C33.0242 26.7537 32.5439 26.9937 32.0372 26.9802H30.748V26.9802ZM31.7957 22.7916C31.9579 22.8039 32.12 22.7666 32.2606 22.685C32.4348 22.5682 32.5707 22.3358 32.5707 21.8416C32.5707 21.3474 32.4348 21.1139 32.2606 20.9982C32.12 20.9165 31.9579 20.8793 31.7957 20.8915V22.7916ZM31.7957 25.9426C31.9581 25.9599 32.1218 25.9224 32.2606 25.8359C32.4348 25.7101 32.5707 25.4334 32.5707 24.8467C32.5707 24.26 32.4348 23.9832 32.2606 23.8574C32.1218 23.771 31.9581 23.7335 31.7957 23.7507V25.9426Z" fill="black"/>
<path d="M37.7294 25.516C37.7254 25.7839 37.6662 26.0481 37.5552 26.2919C37.4628 26.4991 37.3191 26.6792 37.1375 26.8153C36.9055 26.9872 36.6208 27.073 36.3323 27.0578C36.0412 27.0726 35.7537 26.987 35.5181 26.8153C35.3414 26.6781 35.2028 26.4979 35.1156 26.2919C35.0048 26.0481 34.9453 25.7839 34.9414 25.516V21.3174C34.9466 21.0529 35.0058 20.7922 35.1156 20.5515C35.2023 20.3425 35.3409 20.1589 35.5181 20.0181C35.7557 19.8506 36.0417 19.7655 36.3323 19.7755C36.62 19.765 36.9033 19.8503 37.1375 20.0181C37.3195 20.1578 37.4633 20.3413 37.5552 20.5515C37.665 20.7922 37.7245 21.0529 37.7294 21.3174V25.516ZM36.6817 21.3174C36.6935 21.157 36.6451 20.9981 36.5458 20.8715C36.4876 20.819 36.4109 20.7911 36.3326 20.794C36.1807 20.7978 36.0517 20.9065 36.0225 21.0557C35.9942 21.1399 35.9812 21.2285 35.9842 21.3174V25.516C35.9721 25.6779 36.0242 25.8381 36.1291 25.9618C36.1829 26.0137 36.2557 26.0417 36.3304 26.0394C36.4856 26.0449 36.6198 25.9317 36.6404 25.7777C36.6706 25.6939 36.6839 25.605 36.6797 25.516L36.6817 21.3174Z" fill="black"/>
<path d="M41.8886 25.516C41.8844 25.7839 41.8252 26.048 41.7144 26.2919C41.6217 26.499 41.478 26.6791 41.2967 26.8153C41.0645 26.9871 40.78 27.0729 40.4915 27.0578C40.2001 27.0728 39.9121 26.9871 39.6763 26.8153C39.4996 26.6781 39.361 26.4979 39.2738 26.2919C39.163 26.0481 39.1035 25.7839 39.0996 25.516V21.3173C39.1048 21.0528 39.164 20.7922 39.2738 20.5515C39.3605 20.3425 39.4991 20.1589 39.6763 20.0181C39.9144 19.8505 40.2006 19.7654 40.4915 19.7755C40.7792 19.7651 41.0625 19.8504 41.2967 20.0181C41.4785 20.1579 41.6222 20.3414 41.7144 20.5515C41.8239 20.7922 41.8834 21.0528 41.8886 21.3173V25.516ZM40.8409 21.3173C40.8527 21.157 40.8043 20.9981 40.705 20.8715C40.6468 20.8189 40.5701 20.7911 40.4917 20.794C40.3394 20.7973 40.2099 20.9062 40.1807 21.0557C40.1524 21.1399 40.1394 21.2285 40.1424 21.3173V25.516C40.1303 25.6779 40.1824 25.838 40.2873 25.9618C40.3411 26.0137 40.4139 26.0417 40.4886 26.0393C40.6438 26.0449 40.778 25.9317 40.7986 25.7777C40.8289 25.6939 40.8421 25.6049 40.8379 25.516L40.8409 21.3173Z" fill="black"/>
<path d="M44.3704 19.8531V22.3449H44.4097L44.4581 22.2282L45.3306 19.8521H46.3491L45.3889 22.1989L46.4748 26.9793H45.4574L44.7299 23.8766L44.7006 23.7317H44.6714L44.6129 23.8766L44.3704 24.4583V26.9793H43.3228V19.8521L44.3704 19.8531Z" fill="black"/>
<path d="M59.9999 16.6507H54.2444C54.1068 16.0006 53.9623 15.3434 53.8107 14.6792C46.1581 12.0295 38.123 10.6519 30.0247 10.6013H29.9733C21.875 10.6517 13.8398 12.0293 6.18725 14.6792C6.03492 15.3448 5.89044 16.0019 5.75359 16.6507H-0.00195312V30.8408L3.59584 35.2871C3.5838 67.7935 27.3468 71.0451 29.8878 71.2997V71.3188L29.9986 71.3098L30.1082 71.3188V71.2997C32.6524 71.0451 56.4122 67.7935 56.4001 35.2861L59.997 30.8409L59.9999 16.6507ZM30.0256 12.8969C37.4023 13.0037 44.7163 14.2705 51.6992 16.6507H8.34991C15.3332 14.2704 22.6475 13.0037 30.0247 12.8969H30.0256ZM1.34252 18.0526H58.2549V29.4047H1.34252V18.0526ZM30.0247 69.0102C30.0247 69.0102 4.2671 66.5948 6.30298 30.8408H53.7441C55.78 66.5948 30.0234 69.0102 30.0234 69.0102" fill="black"/>
<path d="M24.14 0L25.1051 1.95639L27.2648 2.2704L25.7029 3.79307L26.0712 5.94375L24.14 4.92833L22.2088 5.94375L22.5771 3.79307L21.0151 2.2704L23.1748 1.95639L24.14 0Z" fill="black"/>
<path d="M12.3533 1.55176L13.3185 3.50815L15.4782 3.82216L13.9153 5.34483L14.2845 7.49551L12.3533 6.48009L10.4221 7.49551L10.7904 5.34483L9.22852 3.82216L11.3882 3.50815L12.3533 1.55176Z" fill="black"/>
<path d="M35.8597 0L34.8946 1.95639L32.7349 2.2704L34.2968 3.79307L33.9285 5.94375L35.8597 4.92833L37.7909 5.94375L37.4226 3.79307L38.9845 2.2704L36.8248 1.95639L35.8597 0Z" fill="black"/>
<path d="M47.6463 1.55176L46.6812 3.50815L44.5215 3.82216L46.0834 5.34483L45.7151 7.49551L47.6463 6.48009L49.5775 7.49551L49.2092 5.34483L50.7711 3.82216L48.6124 3.50815L47.6463 1.55176Z" fill="black"/>
<path d="M33.6654 33.7463H35.2445C35.2556 33.7745 35.2819 33.7634 35.2998 33.7634C36.0883 33.7822 36.8753 33.8245 37.6608 33.8903C37.8851 33.9094 38.1097 33.9265 38.331 33.9617V38.7119H37.7927C36.9232 38.7169 36.0536 38.6968 35.1851 38.7229C34.8065 38.7297 34.4318 38.8023 34.078 38.9373C33.6055 39.1122 33.2362 39.4896 33.0716 39.9659C32.9406 40.3547 32.8782 40.7633 32.8873 41.1735C32.8873 42.2997 32.8873 43.4269 32.8873 44.554C32.8885 44.5758 32.8885 44.5977 32.8873 44.6194C32.8812 44.6718 32.8984 44.6949 32.9558 44.6909C33.0433 44.6909 33.132 44.6909 33.2185 44.6909H38.0763C38.1507 44.6909 38.1517 44.6909 38.1426 44.7624C38.1254 44.8892 38.1094 45.015 38.0932 45.1418C38.0261 45.6537 37.9591 46.1656 37.892 46.6775C37.8249 47.1895 37.7578 47.6994 37.6907 48.2072C37.6175 48.7789 37.5438 49.3492 37.4694 49.9181C37.4583 50.0047 37.4593 50.0047 37.3748 50.0047H32.9718C32.8802 50.0047 32.8802 50.0047 32.8802 50.0952C32.8802 54.5898 32.8802 57.5556 32.8802 62.0512C32.8802 62.0753 32.8802 62.0985 32.8863 62.1216H27.3824C27.3934 62.0959 27.3966 62.0676 27.3915 62.0401C27.3915 57.5496 27.3915 54.5928 27.3915 50.0983C27.3915 50.0047 27.3915 50.0047 27.2969 50.0047H22.8767C22.8516 50.0047 22.8254 50.0047 22.8003 50.0107V44.686H22.8718H27.2998C27.3873 44.686 27.3873 44.686 27.3873 44.5994C27.3873 43.3374 27.3873 42.0754 27.3873 40.8134C27.3873 40.7127 27.3811 40.6222 27.3873 40.5265C27.3966 40.0941 27.4345 39.6628 27.501 39.2354C27.6175 38.4495 27.8627 37.6882 28.2266 36.982C28.606 36.25 29.1394 35.609 29.7905 35.1031C30.5721 34.5076 31.4807 34.1008 32.4453 33.9146C32.83 33.8353 33.2197 33.7828 33.6116 33.7575C33.6271 33.7675 33.6534 33.7755 33.6654 33.7463Z" fill="black"/>
</g>
<defs>
<clipPath id="clip0">
<rect width="60" height="71.3199" fill="white"/>
</clipPath>
</defs>
</svg>
