<svg xmlns="http://www.w3.org/2000/svg" width="59.619" height="70.867" viewBox="0 0 59.619 70.867">
  <g id="Group_567" data-name="Group 567" transform="translate(-993.58 -2518)">
    <g id="Group_307" data-name="Group 307" transform="translate(993.58 2518)">
      <g id="Group_305" data-name="Group 305" transform="translate(15.402 17.844)">
        <text id="TWITTER" transform="translate(0 9)" font-size="10" font-family="LeagueGothic-Regular, League Gothic" letter-spacing="0.075em"><tspan x="0" y="0">TWITTER</tspan></text>
      </g>
      <g id="Group_306" data-name="Group 306" transform="translate(0 0)">
        <path id="Path_230" data-name="Path 230" d="M1634.352-666.481h-5.718q-.205-.969-.431-1.959a73.639,73.639,0,0,0-23.634-4.052h-.051a73.636,73.636,0,0,0-23.635,4.052q-.227.992-.431,1.959h-5.719v14.1l3.575,4.418c-.012,32.3,23.6,35.531,26.125,35.784v.019l.109-.009.109.009v-.019c2.528-.253,26.137-3.484,26.125-35.785l3.575-4.417Zm-29.784-3.73a69.889,69.889,0,0,1,21.536,3.73h-43.074a69.889,69.889,0,0,1,21.537-3.73m-28.5,5.123h56.551v11.28h-56.551Zm28.5,50.634s-25.594-2.4-23.571-37.927h47.14c2.024,35.527-23.57,37.927-23.57,37.927" transform="translate(-1574.733 683.026)"/>
        <path id="Path_231" data-name="Path 231" d="M1733.893-751.215l.959,1.944,2.146.312-1.552,1.513.366,2.137-1.919-1.009-1.919,1.009.366-2.137-1.552-1.513,2.146-.312Z" transform="translate(-1709.906 751.215)"/>
        <path id="Path_232" data-name="Path 232" d="M1646.366-739.69l.959,1.944,2.146.312-1.553,1.513.367,2.137-1.919-1.009-1.919,1.009.366-2.137-1.552-1.513,2.146-.312Z" transform="translate(-1634.09 741.233)"/>
        <path id="Path_233" data-name="Path 233" d="M1820.914-751.215l-.959,1.944-2.146.312,1.552,1.513-.366,2.137,1.919-1.009,1.919,1.009-.366-2.137,1.553-1.513-2.146-.312Z" transform="translate(-1785.282 751.215)"/>
        <path id="Path_234" data-name="Path 234" d="M1908.439-739.69l-.959,1.944-2.146.312,1.552,1.513-.366,2.137,1.919-1.009,1.919,1.009-.366-2.137,1.552-1.513-2.145-.312Z" transform="translate(-1861.096 741.233)"/>
      </g>
    </g>
    <path id="Path_238" data-name="Path 238" d="M1729.645-481.675a9.27,9.27,0,0,1-1.7,1.961,1.814,1.814,0,0,1-.348.292.875.875,0,0,0-.443.915,14.773,14.773,0,0,1-3.251,9.332,13.686,13.686,0,0,1-8.923,5.2,13.791,13.791,0,0,1-2.441.213,15.013,15.013,0,0,1-5.806-1.221,11.249,11.249,0,0,1-1.947-1.064,10.656,10.656,0,0,0,7.439-2.158,5.257,5.257,0,0,1-4.792-3.582c.256.022.465.03.671.06a4.649,4.649,0,0,0,1.208-.061c.059-.007.135,0,.144-.073s-.073-.082-.124-.1a8.129,8.129,0,0,1-1.235-.578,5.057,5.057,0,0,1-2.429-4c-.037-.454-.038-.454.387-.255a4.842,4.842,0,0,0,1.809.428c.018-.081-.056-.094-.1-.127a5.093,5.093,0,0,1-2.075-4.4,4.95,4.95,0,0,1,.593-2.155c.087-.167.139-.135.241-.014a14.517,14.517,0,0,0,7.489,4.757,13.347,13.347,0,0,0,2.718.44c.2.011.236-.033.2-.232a5.03,5.03,0,0,1,1.265-4.385,4.963,4.963,0,0,1,3.094-1.628,5.069,5.069,0,0,1,4.346,1.456.3.3,0,0,0,.315.077,10.4,10.4,0,0,0,2.763-1.039c.08-.043.162-.083.3-.152a5.36,5.36,0,0,1-2.117,2.781,8.69,8.69,0,0,0,1.775-.368,6.563,6.563,0,0,1,.979-.322Z" transform="translate(-693.8 3037.896)"/>
  </g>
</svg>
