<svg xmlns="http://www.w3.org/2000/svg" width="59.619" height="70.867" viewBox="0 0 59.619 70.867">
  <g id="Group_565" data-name="Group 565" transform="translate(-1196.381 -2518)">
    <g id="Group_301" data-name="Group 301" transform="translate(1196.381 2518)">
      <g id="Group_294" data-name="Group 294" transform="translate(14.868 19.65)">
        <g id="Group_293" data-name="Group 293">
          <path id="Path_212" data-name="Path 212" d="M2669.007-602.722h-1.436v1.86h.963v1.069h-.963v3.083h-1.041v-7.082h2.476Z" transform="translate(-2666.531 603.869)"/>
          <path id="Path_213" data-name="Path 213" d="M2691.442-596.71l1.07-7.082h1.271l1.07,7.082h-1.012l-.193-1.445h-1l-.193,1.445Zm1.763-4.779-.029-.183h-.058l-.029.183-.3,2.235h.713Z" transform="translate(-2688.109 603.869)"/>
          <path id="Path_214" data-name="Path 214" d="M2728.2-599.636v.973a1.928,1.928,0,0,1-.173.771,1.325,1.325,0,0,1-.414.52,1.236,1.236,0,0,1-.8.241,1.265,1.265,0,0,1-.81-.241,1.3,1.3,0,0,1-.4-.52,1.928,1.928,0,0,1-.173-.771v-4.172a1.92,1.92,0,0,1,.173-.761,1.331,1.331,0,0,1,.4-.53,1.326,1.326,0,0,1,.81-.241,1.3,1.3,0,0,1,.8.241,1.352,1.352,0,0,1,.414.53,1.92,1.92,0,0,1,.173.761v.973h-.973v-.973a.608.608,0,0,0-.154-.443.343.343,0,0,0-.241-.077.342.342,0,0,0-.318.26,1.028,1.028,0,0,0-.048.26v4.172a.664.664,0,0,0,.164.443.276.276,0,0,0,.2.077.336.336,0,0,0,.357-.26.676.676,0,0,0,.039-.26v-.973Z" transform="translate(-2717.546 604.367)"/>
          <path id="Path_215" data-name="Path 215" d="M2756.242-603.792h2.38v1.07h-1.339v1.86h.963v1.137h-.963v1.946h1.339v1.069h-2.38Z" transform="translate(-2744.238 603.869)"/>
          <path id="Path_216" data-name="Path 216" d="M2783.745-596.71v-7.082h.915a2.01,2.01,0,0,1,1.417.414,1.9,1.9,0,0,1,.482,1.465,1.894,1.894,0,0,1-.135.819,2.031,2.031,0,0,1-.511.646,1.442,1.442,0,0,1,.607.867,2.7,2.7,0,0,1,.115.867,2.466,2.466,0,0,1-.337,1.368,1.51,1.51,0,0,1-1.272.636Zm1.041-4.162a.8.8,0,0,0,.462-.106c.173-.116.308-.347.308-.838s-.135-.723-.308-.838a.8.8,0,0,0-.462-.106Zm0,3.131a.728.728,0,0,0,.462-.106c.173-.125.308-.4.308-.983s-.135-.858-.308-.983a.728.728,0,0,0-.462-.106Z" transform="translate(-2768.06 603.869)"/>
          <path id="Path_217" data-name="Path 217" d="M2817.625-598.663a1.928,1.928,0,0,1-.173.771,1.324,1.324,0,0,1-.415.52,1.235,1.235,0,0,1-.8.241,1.265,1.265,0,0,1-.809-.241,1.3,1.3,0,0,1-.4-.52,1.932,1.932,0,0,1-.173-.771v-4.172a1.924,1.924,0,0,1,.173-.761,1.326,1.326,0,0,1,.4-.53,1.325,1.325,0,0,1,.809-.241,1.293,1.293,0,0,1,.8.241,1.351,1.351,0,0,1,.415.53,1.92,1.92,0,0,1,.173.761Zm-1.041-4.172a.642.642,0,0,0-.135-.443.3.3,0,0,0-.212-.077.322.322,0,0,0-.308.26.74.74,0,0,0-.038.26v4.172a.614.614,0,0,0,.144.443.276.276,0,0,0,.2.077.3.3,0,0,0,.308-.26.676.676,0,0,0,.039-.26Z" transform="translate(-2795.003 604.367)"/>
          <path id="Path_218" data-name="Path 218" d="M2848.511-598.663a1.936,1.936,0,0,1-.173.771,1.328,1.328,0,0,1-.415.52,1.236,1.236,0,0,1-.8.241,1.266,1.266,0,0,1-.81-.241,1.3,1.3,0,0,1-.4-.52,1.932,1.932,0,0,1-.173-.771v-4.172a1.924,1.924,0,0,1,.173-.761,1.328,1.328,0,0,1,.4-.53,1.327,1.327,0,0,1,.81-.241,1.294,1.294,0,0,1,.8.241,1.355,1.355,0,0,1,.415.53,1.928,1.928,0,0,1,.173.761Zm-1.041-4.172a.642.642,0,0,0-.135-.443.3.3,0,0,0-.212-.077.322.322,0,0,0-.309.26.74.74,0,0,0-.038.26v4.172a.614.614,0,0,0,.144.443.276.276,0,0,0,.2.077.3.3,0,0,0,.308-.26.672.672,0,0,0,.039-.26Z" transform="translate(-2821.756 604.367)"/>
          <path id="Path_219" data-name="Path 219" d="M2878.168-603.792v2.476h.039l.048-.116.867-2.361h1.012l-.954,2.332,1.079,4.75h-1.011l-.723-3.083-.029-.144h-.029l-.058.144-.241.578v2.505h-1.041v-7.082Z" transform="translate(-2848.947 603.869)"/>
        </g>
      </g>
      <g id="Group_300" data-name="Group 300" transform="translate(0 0)">
        <g id="Group_295" data-name="Group 295" transform="translate(0 10.534)">
          <path id="Path_220" data-name="Path 220" d="M2615.037-666.481h-5.719q-.205-.969-.431-1.959a73.639,73.639,0,0,0-23.635-4.052h-.051a73.634,73.634,0,0,0-23.635,4.052q-.227.992-.431,1.959h-5.719v14.1l3.575,4.418c-.012,32.3,23.6,35.531,26.125,35.784v.019l.11-.009.109.009v-.019c2.528-.253,26.137-3.484,26.125-35.785l3.574-4.417Zm-29.784-3.73a69.887,69.887,0,0,1,21.536,3.73h-43.074a69.892,69.892,0,0,1,21.537-3.73m-28.5,5.123h56.551v11.28h-56.551Zm28.5,50.634s-25.594-2.4-23.571-37.927h47.14c2.023,35.527-23.57,37.927-23.57,37.927" transform="translate(-2555.418 672.492)"/>
        </g>
        <g id="Group_296" data-name="Group 296" transform="translate(20.882)">
          <path id="Path_221" data-name="Path 221" d="M2714.578-751.215l.959,1.944,2.146.312-1.552,1.513.366,2.137-1.919-1.009-1.919,1.009.366-2.137-1.552-1.513,2.146-.312Z" transform="translate(-2711.473 751.215)"/>
        </g>
        <g id="Group_297" data-name="Group 297" transform="translate(9.17 1.542)">
          <path id="Path_222" data-name="Path 222" d="M2627.051-739.69l.959,1.944,2.146.312-1.553,1.513.367,2.137-1.919-1.009-1.919,1.009.366-2.137-1.552-1.513,2.146-.312Z" transform="translate(-2623.946 739.69)"/>
        </g>
        <g id="Group_298" data-name="Group 298" transform="translate(32.527)">
          <path id="Path_223" data-name="Path 223" d="M2801.6-751.215l-.959,1.944-2.146.312,1.552,1.513-.366,2.137,1.919-1.009,1.919,1.009-.366-2.137,1.552-1.513-2.146-.312Z" transform="translate(-2798.495 751.215)"/>
        </g>
        <g id="Group_299" data-name="Group 299" transform="translate(44.239 1.542)">
          <path id="Path_224" data-name="Path 224" d="M2889.125-739.69l-.959,1.944-2.146.312,1.552,1.513-.366,2.137,1.919-1.009,1.919,1.009-.366-2.137,1.552-1.513-2.145-.312Z" transform="translate(-2886.02 739.69)"/>
        </g>
      </g>
    </g>
    <g id="Group_308" data-name="Group 308" transform="translate(1219.033 2551.532)">
      <path id="Path_237" data-name="Path 237" d="M2735.5-500.629h1.569c.011.028.037.017.055.017q1.175.028,2.346.126c.223.019.446.036.666.071v4.72l-.535,0c-.864.005-1.728-.015-2.591.011a3.248,3.248,0,0,0-1.1.213,1.672,1.672,0,0,0-1,1.022,3.512,3.512,0,0,0-.183,1.2c0,1.119,0,2.239,0,3.359a.583.583,0,0,1,0,.065c-.006.052.011.075.068.071.087,0,.175,0,.261,0h4.827c.074,0,.075,0,.066.071-.017.126-.033.251-.049.377q-.1.763-.2,1.526t-.2,1.52q-.109.852-.22,1.7c-.011.086-.01.086-.094.086h-4.375c-.091,0-.091,0-.091.09,0,4.466,0,7.413,0,11.88,0,.024,0,.047.006.07h-5.469a.14.14,0,0,0,.009-.081c0-4.462,0-7.4,0-11.866,0-.093,0-.093-.094-.093h-4.392c-.025,0-.051,0-.076.006v-5.291l.071,0h4.4c.087,0,.087,0,.087-.086q0-1.881,0-3.762c0-.1-.006-.19,0-.285a9.7,9.7,0,0,1,.113-1.283,7.189,7.189,0,0,1,.721-2.239,5.665,5.665,0,0,1,1.554-1.867,6.333,6.333,0,0,1,2.638-1.181,8.434,8.434,0,0,1,1.159-.156C2735.462-500.608,2735.488-500.6,2735.5-500.629Z" transform="translate(-2724.7 500.629)"/>
    </g>
  </g>
</svg>
