<svg width="60" height="71" viewBox="0 0 60 71" fill="none" xmlns="http://www.w3.org/2000/svg">
<g clip-path="url(#clip0)">
<path d="M15.311 20.6273V19.5273H18.411V20.6273H17.411V26.8274H16.311V20.6273H15.311Z" fill="black"/>
<path d="M21.2111 26.8273H20.4111L19.4111 19.5273H20.4111L20.8111 23.3273V23.5273H20.9111V23.3273L21.4111 19.5273H22.2111L22.7111 23.3273V23.5273H22.8111V23.3273L23.2111 19.5273H24.2111L23.2111 26.8273H22.4111L21.9111 23.3273L21.8111 22.9273L21.7111 23.3273L21.2111 26.8273Z" fill="black"/>
<path d="M25.4111 19.5273H26.5111V26.8273H25.4111V19.5273Z" fill="black"/>
<path d="M27.7109 20.6273V19.5273H30.8109V20.6273H29.8109V26.8274H28.7109V20.6273H27.7109Z" fill="black"/>
<path d="M31.7109 20.6273V19.5273H34.8109V20.6273H33.8109V26.8274H32.7109V20.6273H31.7109Z" fill="black"/>
<path d="M35.9111 19.5273H38.4111V20.6273H37.0111V22.5273H38.0111V23.7274H37.0111V25.7274H38.4111V26.8274H35.9111V19.5273Z" fill="black"/>
<path d="M41.711 26.8273L41.1109 23.7273H40.8109V26.8273H39.7109V19.5273H40.8109C42.1109 19.5273 42.6109 20.2274 42.6109 21.6273C42.6109 22.3274 42.4109 23.0273 42.0109 23.3274L42.7109 26.9274H41.711V26.8273ZM40.811 22.7273C41.011 22.7273 41.211 22.7273 41.311 22.5273C41.511 22.4273 41.611 22.1273 41.611 21.6273C41.611 21.1273 41.511 20.8273 41.311 20.7273C41.111 20.6273 40.911 20.6273 40.811 20.6273V22.7273Z" fill="black"/>
<path d="M59.5093 16.5834H53.8093C53.7093 15.9834 53.5093 15.2834 53.4093 14.5834C45.8093 11.9834 37.8093 10.5834 29.8093 10.4834H29.7093C21.7093 10.5834 13.7093 11.8834 6.10928 14.5834C5.90927 15.2834 5.8093 15.8834 5.70929 16.5834H0.00927734V30.6834L3.60928 35.0834C3.60928 67.3834 27.2093 70.5834 29.7093 70.8834H29.8093H29.9093C32.4093 70.5834 56.0093 67.3834 56.0093 35.0834L59.6093 30.6834L59.5093 16.5834ZM29.7093 12.7834C37.0093 12.8834 44.3093 14.1834 51.2093 16.4834H8.10928C15.1093 14.1834 22.4093 12.9834 29.7093 12.7834ZM1.20926 17.9834H57.8093V29.2834H1.20926V17.9834ZM29.7093 68.5834C29.7093 68.5834 4.10928 66.1834 6.10928 30.6834H53.2093C55.3093 66.1834 29.7093 68.5834 29.7093 68.5834Z" fill="black"/>
<path d="M23.9091 -0.0166016L24.9091 1.88339L27.0091 2.18338L25.4091 3.68338L25.8091 5.78339L23.9091 4.78339L22.0091 5.78339L22.4091 3.68338L20.8091 2.18338L22.9091 1.88339L23.9091 -0.0166016Z" fill="black"/>
<path d="M12.2094 1.5835L13.2094 3.48349L15.3094 3.78348L13.7094 5.28348L14.1094 7.38348L12.2094 6.38348L10.3094 7.38348L10.7094 5.28348L9.10938 3.78348L11.2094 3.48349L12.2094 1.5835Z" fill="black"/>
<path d="M35.5092 -0.0166016L34.5092 1.88339L32.4092 2.18338L34.0092 3.68338L33.6092 5.78339L35.5092 4.78339L37.4092 5.78339L37.0092 3.68338L38.6092 2.18338L36.5092 1.88339L35.5092 -0.0166016Z" fill="black"/>
<path d="M47.2094 1.5835L46.2094 3.48349L44.1094 3.78348L45.7094 5.28348L45.3094 7.38348L47.2094 6.38348L49.1094 7.38348L48.7094 5.28348L50.3094 3.78348L48.2094 3.48349L47.2094 1.5835Z" fill="black"/>
<path d="M42.1293 38.2836C41.6293 38.9835 41.1293 39.6835 40.4293 40.2836C40.3293 40.3837 40.2292 40.4835 40.1293 40.5836C39.8293 40.7836 39.6293 41.0836 39.7292 41.4835C39.7292 44.8834 38.6293 48.1835 36.4293 50.7836C34.2292 53.5836 31.0292 55.4835 27.5292 55.9835C26.7292 56.0836 25.9293 56.1835 25.1292 56.1835C23.1292 56.1835 21.1292 55.7836 19.3292 54.9835C18.6292 54.6835 18.0292 54.3834 17.4292 53.8834C20.1292 54.0834 22.7292 53.3834 24.8292 51.6835C22.6292 51.5834 20.7292 50.1835 20.0292 48.0834C20.3292 48.0834 20.5292 48.0834 20.7292 48.1835C21.1293 48.1835 21.5292 48.1835 21.9293 48.0834C22.0292 48.0834 22.0292 48.0834 22.0292 47.9833C22.0292 47.8832 21.9293 47.8832 21.9293 47.8832C21.5292 47.6832 21.1293 47.4833 20.7292 47.2831C19.3292 46.3832 18.4293 44.983 18.3292 43.2831C18.3292 42.7831 18.3292 42.7831 18.7292 42.983C19.3292 43.2831 19.9293 43.3829 20.5292 43.3829C20.5292 43.2828 20.4293 43.2828 20.4293 43.2828C19.0292 42.2828 18.2292 40.5829 18.3293 38.8829C18.3293 38.0829 18.5293 37.3829 18.9293 36.683C19.0292 36.483 19.0292 36.5829 19.1293 36.683C21.0293 38.983 23.7292 40.683 26.6293 41.483C27.5293 41.683 28.4293 41.8829 29.3293 41.8829C29.5293 41.8829 29.5293 41.8829 29.5293 41.683C29.2293 40.0829 29.7293 38.483 30.8293 37.2831C31.6293 36.3832 32.7293 35.7831 33.9293 35.683C35.5292 35.483 37.1293 35.983 38.2292 37.183C38.3292 37.2831 38.4293 37.2831 38.5292 37.2831C39.5292 37.0831 40.4293 36.683 41.3292 36.2831C41.4292 36.2831 41.5292 36.183 41.6292 36.0831C41.2292 37.1832 40.5292 38.1832 39.5292 38.8832C40.1292 38.7831 40.7292 38.6832 41.3292 38.4833C41.5293 38.3837 41.8293 38.2836 42.1293 38.2836Z" fill="black"/>
</g>
<defs>
<clipPath id="clip0">
<rect width="59.619" height="70.867" fill="white"/>
</clipPath>
</defs>
</svg>
