<?xml version="1.0" encoding="utf-8"?>
<!-- Generator: Adobe Illustrator 19.0.0, SVG Export Plug-In . SVG Version: 6.00 Build 0)  -->
<svg version="1.1" id="Layer_1" xmlns="http://www.w3.org/2000/svg" xmlns:xlink="http://www.w3.org/1999/xlink" x="0px" y="0px"
	 viewBox="-275 361.1 59.6 70.9" style="enable-background:new -275 361.1 59.6 70.9;" xml:space="preserve">
<style type="text/css">
	.st0{enable-background:new    ;}
</style>
<g id="Group_566" transform="translate(-1094.98 -2518)">
	<g id="Group_304" transform="translate(1094.98 2518)">
		<g id="Group_302" transform="translate(11.275 17.844)">
			<g class="st0">
				<path d="M-274.6,362.8h1.1v7.3h-1.1V362.8z"/>
				<path d="M-270.8,366.3l-0.1-0.3h-0.1v4.2h-1v-7.3h1l1,3.8l0.1,0.3h0.1v-4.2h1v7.3h-1L-270.8,366.3z"/>
				<path d="M-265.5,364.8c0-0.2,0-0.5-0.1-0.7c-0.1-0.2-0.2-0.3-0.3-0.3c-0.3,0-0.4,0.3-0.4,0.7c0,0.3,0.1,0.5,0.3,0.8
					c0.2,0.3,0.4,0.6,0.6,0.9c0.3,0.4,0.5,0.8,0.7,1.1c0.2,0.4,0.3,0.7,0.3,1.1c0,0.5-0.1,0.9-0.3,1.3s-0.6,0.6-1.2,0.6
					c-0.7,0-1.1-0.3-1.3-0.7c-0.2-0.4-0.3-0.9-0.3-1.5l1.1-0.1c0,0.3,0,0.6,0.1,0.8c0.1,0.2,0.2,0.4,0.4,0.4c0.3,0,0.4-0.3,0.4-0.8
					c0-0.2-0.1-0.5-0.3-0.8c-0.1-0.1-0.2-0.3-0.3-0.4c-0.2-0.3-0.4-0.6-0.7-1c-0.2-0.4-0.4-0.8-0.5-1.1c-0.1-0.2-0.1-0.4-0.1-0.6
					c0-0.4,0.1-0.8,0.3-1.2c0.2-0.3,0.6-0.5,1.1-0.6c0.6,0,1,0.3,1.2,0.6c0.2,0.4,0.3,0.9,0.3,1.3L-265.5,364.8z"/>
				<path d="M-263.5,363.9v-1.1h3.1v1.1h-1v6.2h-1.1v-6.2H-263.5z"/>
				<path d="M-259.7,370.1l1.1-7.3h1.3l1.1,7.3h-1l-0.2-1.5h-1l-0.2,1.5H-259.7z M-257.9,365.2l0-0.2h-0.1l0,0.2l-0.3,2.3h0.7
					L-257.9,365.2z"/>
				<path d="M-253.2,365.4v-1.1c0-0.2,0-0.3-0.1-0.5c0,0-0.1-0.1-0.2-0.1c-0.2,0-0.3,0.1-0.3,0.3c0,0.1,0,0.2,0,0.3v4.4
					c0,0.2,0,0.3,0.1,0.5c0,0,0.1,0.1,0.2,0.1c0.2,0,0.3-0.1,0.3-0.3c0-0.1,0-0.2,0-0.3v-1.3h-0.4v-0.9h1.5v3.7h-0.6l-0.1-0.3
					c-0.2,0.3-0.5,0.4-0.8,0.4s-0.6-0.1-0.8-0.3c-0.2-0.2-0.3-0.3-0.4-0.5c-0.1-0.2-0.1-0.5-0.1-0.8v-4.3c0-0.3,0.1-0.6,0.2-0.8
					c0.1-0.2,0.2-0.4,0.4-0.5c0.2-0.2,0.5-0.3,0.8-0.3c0.4,0,0.6,0.1,0.8,0.3c0.2,0.1,0.3,0.3,0.4,0.5c0.1,0.2,0.2,0.5,0.2,0.8v1.1
					H-253.2z"/>
				<path d="M-248.6,370.1l-0.6-3.1h-0.3v3.1h-1.1v-7.3h1.1c1.3,0,1.8,0.7,1.8,2.1c0,0.7-0.2,1.4-0.6,1.7l0.7,3.6H-248.6z
					 M-249.5,366c0.1,0,0.3,0,0.5-0.2s0.3-0.4,0.3-0.9c0-0.5-0.1-0.8-0.3-0.9c-0.2-0.1-0.4-0.1-0.5-0.1V366z"/>
				<path d="M-246.5,370.1l1.1-7.3h1.3l1.1,7.3h-1l-0.2-1.5h-1l-0.2,1.5H-246.5z M-244.7,365.2l0-0.2h-0.1l0,0.2l-0.3,2.3h0.7
					L-244.7,365.2z"/>
				<path d="M-239.9,370.1l-0.7-4.6l0-0.3h-0.1v4.9h-1v-7.3h1.3l0.6,3.4l0,0.4h0l0-0.4l0.6-3.4h1.3v7.3h-1v-4.9h-0.1l0,0.3l-0.7,4.6
					H-239.9z"/>
			</g>
		</g>
		<g id="Group_303" transform="translate(0 0)">
			<g id="Path_225">
				<path d="M-215.4,377.7h-5.7c-0.1-0.6-0.3-1.3-0.4-2c-7.6-2.6-15.6-4-23.6-4.1h-0.1c-8,0.1-16,1.4-23.6,4.1
					c-0.2,0.7-0.3,1.3-0.4,2h-5.7v14.1l3.6,4.4c0,32.3,23.6,35.5,26.1,35.8v0l0.1,0l0.1,0v0c2.5-0.3,26.1-3.5,26.1-35.8l3.6-4.4
					V377.7z M-245.2,373.9c7.3,0.1,14.6,1.4,21.5,3.7h-43.1C-259.8,375.3-252.5,374.1-245.2,373.9 M-273.7,379.1h56.6v11.3h-56.6
					V379.1z M-245.2,429.7c0,0-25.6-2.4-23.6-37.9h47.1C-219.6,427.3-245.2,429.7-245.2,429.7"/>
			</g>
			<g id="Path_226">
				<path d="M-251,361.1l1,1.9l2.1,0.3l-1.6,1.5l0.4,2.1l-1.9-1l-1.9,1l0.4-2.1l-1.6-1.5l2.1-0.3L-251,361.1z"/>
			</g>
			<g id="Path_227">
				<path d="M-262.7,362.7l1,1.9l2.1,0.3l-1.6,1.5l0.4,2.1l-1.9-1l-1.9,1l0.4-2.1l-1.6-1.5l2.1-0.3L-262.7,362.7z"/>
			</g>
			<g id="Path_228">
				<path d="M-239.4,361.1l-1,1.9l-2.1,0.3l1.6,1.5l-0.4,2.1l1.9-1l1.9,1l-0.4-2.1l1.6-1.5l-2.1-0.3L-239.4,361.1z"/>
			</g>
			<g id="Path_229">
				<path d="M-227.7,362.7l-1,1.9l-2.1,0.3l1.6,1.5l-0.4,2.1l1.9-1l1.9,1l-0.4-2.1l1.6-1.5l-2.1-0.3L-227.7,362.7z"/>
			</g>
		</g>
	</g>
	<g id="Path_235">
		<path d="M838.5,2925.1c0-6.3,5.1-11.3,11.4-11.3c6.3,0,11.3,5.1,11.3,11.4c0,0,0,0,0,0c0,6.3-5.1,11.3-11.4,11.3
			C843.5,2936.4,838.5,2931.3,838.5,2925.1z M841.9,2925.1c0,4.3,3.5,7.8,7.8,7.9c4.3,0,7.9-3.5,7.9-7.8c0-4.4-3.5-7.9-7.8-7.9
			c0,0,0,0,0,0C845.5,2917.2,842,2920.7,841.9,2925.1L841.9,2925.1z"/>
	</g>
	<g id="Path_236">
		<path d="M869,2912.4c0.9,0,1.7,0.8,1.7,1.7c0,0.9-0.8,1.7-1.7,1.7c0,0,0,0,0,0c-0.9,0-1.7-0.8-1.7-1.7c0,0,0,0,0,0
			C867.3,2913.1,868.1,2912.4,869,2912.4C869,2912.4,869,2912.4,869,2912.4z"/>
	</g>
</g>
</svg>
