<svg width="60" height="71" viewBox="0 0 60 71" fill="none" xmlns="http://www.w3.org/2000/svg">
<g clip-path="url(#clip0)">
<path d="M11.5845 19.5273H12.6845V26.8273H11.5845V19.5273Z" fill="black"/>
<path d="M15.3846 23.0273L15.2846 22.7274H15.1846V26.9274H14.1846V19.6274H15.1846L16.1846 23.4274L16.2846 23.7274H16.3846V19.5273H17.3846V26.8273H16.3846L15.3846 23.0273Z" fill="black"/>
<path d="M20.6845 21.5273C20.6845 21.3273 20.6845 21.0273 20.5845 20.8273C20.4845 20.6273 20.3845 20.5273 20.2845 20.5273C19.9846 20.5273 19.8846 20.8273 19.8846 21.2273C19.8846 21.5273 19.9846 21.7273 20.1845 22.0273C20.3846 22.3273 20.5845 22.6273 20.7845 22.9273C21.0845 23.3273 21.2845 23.7273 21.4846 24.0273C21.6846 24.4273 21.7845 24.7273 21.7845 25.1273C21.7845 25.6273 21.6845 26.0273 21.4846 26.4273C21.2846 26.8273 20.8846 27.0273 20.2845 27.0273C19.5845 27.0273 19.1845 26.7273 18.9846 26.3273C18.7845 25.9273 18.6846 25.4273 18.6846 24.8273L19.7846 24.7273C19.7846 25.0273 19.7846 25.3273 19.8846 25.5273C19.9846 25.7273 20.0846 25.9272 20.2846 25.9272C20.5846 25.9272 20.6846 25.6273 20.6846 25.1273C20.6846 24.9272 20.5846 24.6273 20.3846 24.3273C20.2846 24.2273 20.1846 24.0273 20.0846 23.9273C19.8846 23.6273 19.6846 23.3273 19.3846 22.9273C19.1846 22.5273 18.9846 22.1273 18.8846 21.8273C18.7846 21.6273 18.7846 21.4273 18.7846 21.2273C18.7846 20.8273 18.8846 20.4273 19.0846 20.0273C19.2846 19.7273 19.6846 19.5273 20.1846 19.4272C20.7846 19.4272 21.1846 19.7272 21.3846 20.0273C21.5846 20.4272 21.6846 20.9272 21.6846 21.3272L20.6845 21.5273Z" fill="black"/>
<path d="M22.6846 20.6273V19.5273H25.7846V20.6273H24.7846V26.8274H23.6846V20.6273H22.6846Z" fill="black"/>
<path d="M26.4844 26.8273L27.5844 19.5273H28.8844L29.9844 26.8273H28.9844L28.7844 25.3273H27.7844L27.5844 26.8273H26.4844ZM28.2844 21.9273V21.7273H28.1844V21.9273L27.8844 24.2273H28.5844L28.2844 21.9273Z" fill="black"/>
<path d="M32.9847 22.1273V21.0273C32.9847 20.8272 32.9847 20.7273 32.8847 20.5273C32.8847 20.5273 32.7847 20.4272 32.6847 20.4272C32.4847 20.4272 32.3847 20.5273 32.3847 20.7272C32.3847 20.8272 32.3847 20.9272 32.3847 21.0272V25.4272C32.3847 25.6272 32.3847 25.7272 32.4847 25.9272C32.4847 25.9272 32.5847 26.0272 32.6847 26.0272C32.8847 26.0272 32.9847 25.9272 32.9847 25.7272C32.9847 25.6272 32.9847 25.5272 32.9847 25.4272V24.1273H32.5847V23.2273H34.0847V26.9273H33.4847L33.3847 26.6273C33.1847 26.9273 32.8847 27.0273 32.5847 27.0273C32.2847 27.0273 31.9847 26.9273 31.7847 26.7273C31.5847 26.5273 31.4847 26.4273 31.3847 26.2273C31.2847 26.0273 31.2847 25.7273 31.2847 25.4273V21.1273C31.2847 20.8273 31.3847 20.5273 31.4847 20.3273C31.5847 20.1273 31.6847 19.9273 31.8847 19.8273C32.0847 19.6273 32.3847 19.5273 32.6847 19.5273C33.0847 19.5273 33.2847 19.6273 33.4847 19.8273C33.6847 19.9273 33.7847 20.1273 33.8847 20.3273C33.9847 20.5273 34.0847 20.8273 34.0847 21.1273V22.2273H32.9847V22.1273V22.1273Z" fill="black"/>
<path d="M37.5845 26.8273L36.9845 23.7273H36.6845V26.8273H35.5845V19.5273H36.6845C37.9845 19.5273 38.4845 20.2274 38.4845 21.6273C38.4845 22.3274 38.2845 23.0273 37.8845 23.3274L38.5845 26.9274H37.5845V26.8273ZM36.6845 22.7273C36.7845 22.7273 36.9845 22.7273 37.1845 22.5273C37.3845 22.3273 37.4845 22.1273 37.4845 21.6273C37.4845 21.1273 37.3845 20.8273 37.1845 20.7273C36.9845 20.6273 36.7845 20.6273 36.6845 20.6273V22.7273Z" fill="black"/>
<path d="M39.6846 26.8273L40.7846 19.5273H42.0846L43.1846 26.8273H42.1846L41.9846 25.3273H40.9846L40.7846 26.8273H39.6846ZM41.4846 21.9273V21.7273H41.3846V21.9273L41.0846 24.2273H41.7846L41.4846 21.9273Z" fill="black"/>
<path d="M46.2844 26.8273L45.5844 22.2273V21.9273H45.4844V26.8273H44.4844V19.5273H45.7844L46.3844 22.9273V23.3273V22.9273L46.9844 19.5273H48.2844V26.8273H47.2844V21.9273H47.1844V22.2273L46.4844 26.8273H46.2844Z" fill="black"/>
<path d="M59.5093 16.5834H53.8093C53.7093 15.9834 53.5093 15.2834 53.4093 14.5834C45.8093 11.9834 37.8093 10.5834 29.8093 10.4834H29.7093C21.7093 10.5834 13.7093 11.8834 6.10928 14.5834C5.90927 15.2834 5.8093 15.8834 5.70929 16.5834H0.00927734V30.6834L3.60928 35.0834C3.60928 67.3834 27.2093 70.5834 29.7093 70.8834H29.8093H29.9093C32.4093 70.5834 56.0093 67.3834 56.0093 35.0834L59.6093 30.6834V16.5834H59.5093ZM29.7093 12.7834C37.0093 12.8834 44.3093 14.1834 51.2093 16.4834H8.10928C15.1093 14.1834 22.4093 12.9834 29.7093 12.7834ZM1.20926 17.9834H57.8093V29.2834H1.20926V17.9834ZM29.7093 68.5834C29.7093 68.5834 4.10928 66.1834 6.10928 30.6834H53.2093C55.3093 66.1834 29.7093 68.5834 29.7093 68.5834Z" fill="black"/>
<path d="M23.9091 -0.0166016L24.9091 1.88339L27.0091 2.18338L25.4091 3.68338L25.8091 5.78339L23.9091 4.78339L22.0091 5.78339L22.4091 3.68338L20.8091 2.18338L22.9091 1.88339L23.9091 -0.0166016Z" fill="black"/>
<path d="M12.2094 1.5835L13.2094 3.48349L15.3094 3.78348L13.7094 5.28348L14.1094 7.38348L12.2094 6.38348L10.3094 7.38348L10.7094 5.28348L9.10938 3.78348L11.2094 3.48349L12.2094 1.5835Z" fill="black"/>
<path d="M35.5092 -0.0166016L34.5092 1.88339L32.4092 2.18338L34.0092 3.68338L33.6092 5.78339L35.5092 4.78339L37.4092 5.78339L37.0092 3.68338L38.6092 2.18338L36.5092 1.88339L35.5092 -0.0166016Z" fill="black"/>
<path d="M47.2094 1.5835L46.2094 3.48349L44.1094 3.78348L45.7094 5.28348L45.3094 7.38348L47.2094 6.38348L49.1094 7.38348L48.7094 5.28348L50.3094 3.78348L48.2094 3.48349L47.2094 1.5835Z" fill="black"/>
<path d="M18.4292 45.9836C18.4292 39.6836 23.5292 34.6836 29.8292 34.6836C36.1293 34.6836 41.1293 39.7837 41.1293 46.0835C41.1293 52.3835 36.0293 57.3835 29.7292 57.3835C23.4292 57.2834 18.4292 52.1836 18.4292 45.9836ZM21.8292 45.9836C21.8292 50.2837 25.3292 53.7837 29.6293 53.8835C33.9292 53.8835 37.5293 50.3835 37.5293 46.0835C37.5293 41.6836 34.0293 38.1836 29.7292 38.1836C25.4292 38.0835 21.9292 41.5835 21.8292 45.9836Z" fill="black"/>
<path d="M48.9294 33.2834C49.8295 33.2834 50.6295 34.0835 50.6295 34.9834C50.6295 35.8833 49.8295 36.6833 48.9294 36.6833C48.0294 36.6833 47.2295 35.8833 47.2295 34.9834C47.2295 33.9836 48.0294 33.2834 48.9294 33.2834Z" fill="black"/>
</g>
<defs>
<clipPath id="clip0">
<rect width="59.619" height="70.867" fill="white"/>
</clipPath>
</defs>
</svg>
