<svg xmlns="http://www.w3.org/2000/svg" width="59.619" height="70.867" viewBox="0 0 59.619 70.867">
  <g id="Group_566" data-name="Group 566" transform="translate(-1094.98 -2518)">
    <g id="Group_304" data-name="Group 304" transform="translate(1094.98 2518)">
      <g id="Group_302" data-name="Group 302" transform="translate(11.275 17.844)">
        <text id="INSTAGRAM" transform="translate(0 9)" font-size="10" font-family="LeagueGothic-Regular, League Gothic" letter-spacing="0.075em"><tspan x="0" y="0">INSTAGRAM</tspan></text>
      </g>
      <g id="Group_303" data-name="Group 303" transform="translate(0 0)">
        <path id="Path_225" data-name="Path 225" d="M2124.695-666.481h-5.719q-.205-.969-.431-1.959a73.637,73.637,0,0,0-23.634-4.052h-.051a73.635,73.635,0,0,0-23.634,4.052c-.152.661-.294,1.313-.431,1.959h-5.719v14.1l3.575,4.418c-.012,32.3,23.6,35.531,26.125,35.784v.019l.109-.009.11.009v-.019c2.528-.253,26.137-3.484,26.125-35.785l3.575-4.417Zm-29.784-3.73a69.89,69.89,0,0,1,21.536,3.73h-43.074a69.892,69.892,0,0,1,21.537-3.73m-28.5,5.123h56.55v11.28h-56.55Zm28.5,50.634s-25.594-2.4-23.571-37.927h47.14c2.024,35.527-23.57,37.927-23.57,37.927" transform="translate(-2065.076 683.026)"/>
        <path id="Path_226" data-name="Path 226" d="M2224.235-751.215l.959,1.944,2.146.312-1.552,1.513.366,2.137-1.919-1.009-1.919,1.009.366-2.137-1.552-1.513,2.146-.312Z" transform="translate(-2200.248 751.215)"/>
        <path id="Path_227" data-name="Path 227" d="M2136.708-739.69l.959,1.944,2.146.312-1.553,1.513.367,2.137-1.919-1.009-1.919,1.009.366-2.137-1.552-1.513,2.146-.312Z" transform="translate(-2124.433 741.233)"/>
        <path id="Path_228" data-name="Path 228" d="M2311.257-751.215l-.959,1.944-2.146.312,1.552,1.513-.366,2.137,1.919-1.009,1.919,1.009-.366-2.137,1.552-1.513-2.146-.312Z" transform="translate(-2275.625 751.215)"/>
        <path id="Path_229" data-name="Path 229" d="M2398.782-739.69l-.959,1.944-2.146.312,1.552,1.513-.366,2.137,1.919-1.009,1.919,1.009-.366-2.137,1.552-1.513-2.145-.312Z" transform="translate(-2351.438 741.233)"/>
      </g>
    </g>
    <path id="Path_235" data-name="Path 235" d="M2203.217-481.377a11.368,11.368,0,0,1,11.373-11.346,11.353,11.353,0,0,1,11.319,11.394,11.344,11.344,0,0,1-11.38,11.3A11.357,11.357,0,0,1,2203.217-481.377Zm3.471-.006a7.888,7.888,0,0,0,7.823,7.882,7.873,7.873,0,0,0,7.926-7.8,7.884,7.884,0,0,0-7.846-7.948A7.9,7.9,0,0,0,2206.688-481.384Z" transform="translate(-1089.751 3045.313)"/>
    <path id="Path_236" data-name="Path 236" d="M2420.577-502.566a1.685,1.685,0,0,1,1.682,1.684,1.689,1.689,0,0,1-1.7,1.688,1.684,1.684,0,0,1-1.68-1.7A1.682,1.682,0,0,1,2420.577-502.566Z" transform="translate(-1276.558 3053.839)"/>
  </g>
</svg>
