<?xml version="1.0" encoding="utf-8"?>
<!-- Generator: Adobe Illustrator 19.0.0, SVG Export Plug-In . SVG Version: 6.00 Build 0)  -->
<svg version="1.1" id="Layer_1" xmlns="http://www.w3.org/2000/svg" xmlns:xlink="http://www.w3.org/1999/xlink" x="0px" y="0px"
	 viewBox="0 0 480.5 547.1" style="enable-background:new 0 0 480.5 547.1;" xml:space="preserve">
<style type="text/css">
	.st0{fill:#FFFFFF;stroke:#FFFFFF;stroke-width:35;stroke-miterlimit:10;}
	.st1{stroke:#FFFFFF;stroke-width:5;stroke-miterlimit:10;}
	.st2{fill:#231F20;}
</style>
<g>
	<path class="st0" d="M420.3,123.6c-1-4.8-2.1-9.7-3.2-14.6c0,0-79-30.2-176.6-30.3v0c-0.1,0-0.1,0-0.2,0c-0.1,0-0.1,0-0.2,0v0
		C142.4,78.8,63.5,109,63.5,109c-1.1,4.9-2.2,9.8-3.2,14.6H17.5V229l26.7,33c-0.1,241.4,176.3,265.5,195.2,267.4l0.8,0.1
		c0,0-0.5,0,0,0c0.5,0,0,0,0,0l0.8-0.1c18.9-1.9,195.3-26,195.2-267.4l26.7-33V123.6H420.3z"/>
</g>
<g>
	<g>
		<path class="st1" d="M131.7,379.3c0.8,2.3-0.4,4.8-2.7,5.6l0,0c-2.3,0.8-4.8-0.4-5.6-2.7L85.9,277.5c-0.8-2.3,0.4-4.8,2.7-5.6l0,0
			c2.3-0.8,4.8,0.4,5.6,2.7L131.7,379.3z"/>
		<path d="M97.7,268.4l39.5,110.3c0,0,43-36.4,58.6-33.2c0,0,15,38.2,52.3,10c37.3-28.2,66.3-52.3,101.5-49.3
			c0,0-57.2-40.2-124.7-26.9c0,0,5.8,44.3,5,58.9c0,0-16-72-27.6-87.3C202.3,250.8,182.9,216.1,97.7,268.4z"/>
		<path class="st1" d="M173.9,424.6c0.8,2.3-0.4,4.8-2.7,5.6l0,0c-2.3,0.8-4.8-0.4-5.6-2.7l-37.5-104.7c-0.8-2.3,0.4-4.8,2.7-5.6
			l0,0c2.3-0.8,4.8,0.4,5.6,2.7L173.9,424.6z"/>
		<path class="st1" d="M142.9,313.6l39.5,110.3c0,0,43-36.4,58.6-33.2c0,0,15,38.2,52.3,10c37.3-28.2,66.3-52.3,101.5-49.3
			c0,0-57.2-40.2-124.7-26.9c0,0,5.8,44.3,5,58.9c0,0-16-72-27.6-87.3C247.6,296.1,228.1,261.3,142.9,313.6z"/>
	</g>
	<g>
		<g>
			<path class="st2" d="M218.4,467.4c0.1-0.4,0.2-0.8,0.3-1.3c0.6-2.5,1.7-4.6,4.7-4c2.8,0.5,3.4,2.6,3,5.2
				c-0.5,3.8-4.5,8.6-6.7,10.6c1.7,0.3,3.4,0.6,5.1,0.8c-0.1,0.9-0.2,1.8-0.4,2.7c-3-0.4-6-1-9-1.6c0.2-0.9,0.4-1.8,0.6-2.7
				c0.1,0.1,6.6-5.6,7.4-10.2c0.2-1,0.3-2.3-0.6-2.4c-0.8-0.1-1.1,0.9-1.4,2.1c-0.1,0.4-0.2,0.9-0.2,1.3
				C220.3,467.8,219.4,467.6,218.4,467.4z"/>
			<path class="st2" d="M234.2,482.6c-4.5-0.2-4.1-4.4-4.1-4.3c0.3-3.7,0.6-7.3,1-11c0,0,0.4-4,4-3.8c3.7,0.1,3.7,4.1,3.7,4.2
				c0,3.7,0,7.4-0.1,11.1C238.8,478.6,238.8,482.8,234.2,482.6z M235,466.1c-1,0-1,1.3-1,1.3c-0.2,3.7-0.4,7.4-0.6,11
				c0,0-0.1,1.4,1,1.4c1.2,0.1,1.1-1.3,1.1-1.3c0.1-3.7,0.3-7.4,0.4-11.1C235.9,467.5,236,466.2,235,466.1z"/>
			<path class="st2" d="M242.7,467.7c0-0.6,0-1.2-0.1-1.8c2.4-0.6,2.9-2.5,2.9-2.5c0.6,0,1.1-0.1,1.7-0.1c0.6,6.2,1.1,12.5,1.7,18.7
				c-1.1,0.1-2.2,0.2-3.4,0.2c-0.3-4.9-0.6-9.8-0.8-14.7C244,467.7,243.4,467.7,242.7,467.7z"/>
			<path class="st2" d="M258.2,478.6c0.7-0.1,0.9-0.8,0.5-2.6c-0.3-1.4-0.5-2.7-0.8-4.1c-0.1-0.8-0.6-1.3-1.2-1.2
				c-0.7,0.1-1,1.1-0.9,1.6c-0.9,0.1-1.7,0.3-2.6,0.4c-0.5-3.3-0.9-6.5-1.4-9.8c2.2-0.3,4.4-0.7,6.6-1.2c0.2,0.9,0.4,1.8,0.6,2.7
				c-1.5,0.3-2.9,0.6-4.4,0.9c0.2,1.3,0.4,2.6,0.7,3.9c0,0,0.8-0.8,1.6-0.9c3-0.6,4,2.5,4.1,3.1c0.3,1.4,0.6,2.7,0.9,4.1
				c0.4,1.7,0.8,4.9-3.3,5.7c-4.1,0.7-4.8-2.5-5.1-4.9c1.1-0.1,2.1-0.3,3.2-0.5c0,0.2,0.1,0.5,0.1,0.7
				C257.1,478.2,257.5,478.7,258.2,478.6z"/>
		</g>
		<g>
			<path d="M139.1,166.4v-8.1c0-1.4-0.3-2.4-1-3.3c-0.4-0.4-0.9-0.6-1.6-0.6c-1.4,0-2,1-2.3,1.9c-0.2,0.6-0.3,1.2-0.3,1.9v31.8
				c0,1.5,0.4,2.5,1.1,3.3c0.4,0.4,0.9,0.6,1.5,0.6c1.4,0,2-0.9,2.3-1.9c0.2-0.5,0.3-1.2,0.3-1.9v-9.6H136V174h10.9v26.4h-4.6
				l-0.9-2.5c-1.4,1.8-3.5,3.1-6,3.1c-2.5,0-4.2-0.6-5.5-1.8c-1.3-1.1-2.2-2.4-2.7-3.9c-0.6-1.7-0.9-3.6-0.9-5.8v-31.2
				c0.1-2.1,0.5-4,1.3-5.7c0.6-1.4,1.6-2.9,3-4c1.4-1.1,3.5-1.8,6-1.8s4.5,0.7,6,1.8c1.4,1.1,2.4,2.5,3.1,4c0.8,1.7,1.2,3.6,1.3,5.7
				v8.1H139.1z"/>
			<path d="M155.8,200.3l8-52.9h9.5l8,52.9h-7.6l-1.4-10.8h-7.5l-1.4,10.8H155.8z M169,164.6l-0.2-1.4h-0.4l-0.2,1.4l-2.2,16.7h5.3
				L169,164.6z"/>
			<path d="M198.5,172.8l-0.6-2.4h-0.4v30h-7.1v-52.9h6.9l7.6,27.6l0.6,2.4h0.4v-30h7.1v52.9h-6.9L198.5,172.8z"/>
			<path d="M221.4,155.4v-8h22.5v8h-7.3v44.9h-7.8v-44.9H221.4z"/>
			<path d="M252.3,147.4h7.8v52.9h-7.8V147.4z"/>
			<path d="M283.7,166.4v-8.1c0-1.4-0.3-2.4-1-3.3c-0.4-0.4-0.9-0.6-1.6-0.6c-1.4,0-2,1-2.3,1.9c-0.2,0.6-0.3,1.2-0.3,1.9v31.8
				c0,1.5,0.4,2.5,1.1,3.3c0.4,0.4,0.9,0.6,1.5,0.6c1.4,0,2-0.9,2.3-1.9c0.2-0.5,0.3-1.2,0.3-1.9v-9.6h-3.1V174h10.9v26.4h-4.6
				l-0.9-2.5c-1.4,1.8-3.5,3.1-6,3.1c-2.5,0-4.2-0.6-5.5-1.8c-1.3-1.1-2.2-2.4-2.7-3.9c-0.6-1.7-0.9-3.6-0.9-5.8v-31.2
				c0.1-2.1,0.5-4,1.3-5.7c0.6-1.4,1.6-2.9,3-4c1.4-1.1,3.5-1.8,6-1.8s4.5,0.7,6,1.8c1.4,1.1,2.4,2.5,3.1,4c0.8,1.7,1.2,3.6,1.3,5.7
				v8.1H283.7z"/>
			<path d="M322.8,189.5c-0.1,2.2-0.5,4.1-1.3,5.8c-0.6,1.4-1.7,2.8-3.1,3.9c-1.4,1.2-3.4,1.8-6,1.8s-4.6-0.6-6-1.8
				c-1.4-1.1-2.4-2.4-3-3.9c-0.8-1.7-1.2-3.6-1.3-5.8v-31.2c0.1-2.1,0.5-4,1.3-5.7c0.6-1.4,1.6-2.9,3-4c1.4-1.1,3.5-1.8,6-1.8
				s4.5,0.7,6,1.8c1.4,1.1,2.4,2.5,3.1,4c0.8,1.7,1.2,3.6,1.3,5.7V189.5z M315,158.3c0-1.4-0.3-2.4-1-3.3c-0.4-0.4-0.9-0.6-1.6-0.6
				c-1.4,0-2,1-2.3,1.9c-0.2,0.6-0.3,1.2-0.3,1.9v31.2c0,1.5,0.4,2.5,1.1,3.3c0.4,0.4,0.9,0.6,1.5,0.6c1.4,0,2-0.9,2.3-1.9
				c0.2-0.5,0.3-1.2,0.3-1.9V158.3z"/>
			<path d="M333.4,147.4h7.8v45.7h10.3v7.2h-18.1V147.4z"/>
		</g>
	</g>
	<g>
		<path class="st2" d="M463,123.6h-42.7c-1-4.8-2.1-9.7-3.2-14.6c0,0-79-30.2-176.6-30.3v0c-0.1,0-0.1,0-0.2,0c-0.1,0-0.1,0-0.2,0v0
			C142.4,78.8,63.5,109,63.5,109c-1.1,4.9-2.2,9.8-3.2,14.6H17.5V229l26.7,33c-0.1,241.4,176.3,265.5,195.2,267.4v0.1
			c0,0,0.3,0,0.8-0.1c0.5,0,0.8,0.1,0.8,0.1v-0.1c18.9-1.9,195.3-26,195.2-267.4l26.7-33V123.6z M240.5,95.8
			c78.6-0.8,154.4,25.5,160.9,27.9H79.5C86.1,121.3,161.9,95,240.5,95.8 M27.5,134.1h30.6h18.8h327h18.5h27.7v84.3h-15.6h-18.6H65
			H46H27.5V134.1z M240.5,512.4c0,0-191.3-17.9-176.1-283.4h352.3C431.7,494.5,240.5,512.4,240.5,512.4"/>
		<polygon class="st2" points="196.8,0 203.9,14.5 220,16.9 208.4,28.2 211.1,44.1 196.8,36.6 182.4,44.1 185.2,28.2 173.6,16.9 
			189.6,14.5 		"/>
		<polygon class="st2" points="109.2,11.5 116.4,26.1 132.4,28.4 120.8,39.7 123.6,55.7 109.2,48.1 94.9,55.7 97.6,39.7 86,28.4 
			102.1,26.1 		"/>
		<polygon class="st2" points="283.8,0 276.6,14.5 260.6,16.9 272.2,28.2 269.4,44.1 283.8,36.6 298.1,44.1 295.4,28.2 307,16.9 
			291,14.5 		"/>
		<polygon class="st2" points="371.3,11.5 364.1,26.1 348.1,28.4 359.7,39.7 357,55.7 371.3,48.1 385.6,55.7 382.9,39.7 394.5,28.4 
			378.5,26.1 		"/>
	</g>
</g>
</svg>
