<?xml version="1.0" encoding="utf-8"?>
<!-- Generator: Adobe Illustrator 23.0.1, SVG Export Plug-In . SVG Version: 6.00 Build 0)  -->
<svg version="1.1" id="Layer_1" xmlns="http://www.w3.org/2000/svg" xmlns:xlink="http://www.w3.org/1999/xlink" x="0px" y="0px"
	 viewBox="0 0 512 489.9" style="enable-background:new 0 0 512 489.9;" xml:space="preserve">
<style type="text/css">
	.st0{fill:none;}
	.st1{fill:#FFFFFF;}
</style>
<path id="_x3C_Group_x3E__8_" d="M19.9,1209.5l-10.2-30.5h263.9L337.1,992c4.4-12.8-5.2-26.1-18.8-26.1H-61.3l-35.3-106
	c-3.1-9.5-12.1-15.9-22-15.9h-55.1l0,0c0,16.9,13.6,30.5,30.5,30.5h19.5c4,11.9,88.1,264.3,114.3,342.8
	c4.5,13.5,17.1,22.5,31.3,22.5l0,0c-1.7,4.8-2.6,10.1-2.6,15.4c0,25.2,20.5,45.7,45.7,45.7s45.7-20.5,45.7-45.7
	c0-5.4-0.9-10.7-2.6-15.4H174c-1.7,4.8-2.6,10.1-2.6,15.4c0,26.3,22.2,47.4,48.9,45.6c22-1.5,40-18.9,42.2-40.8
	c0.7-7.1-0.2-13.8-2.3-20H278v-30.5H19.9z M140.7,1148.6H91L40.2,996.4h49.7L140.7,1148.6z M131.6,996.4h50l50.8,152.3h-50
	L131.6,996.4z M262.8,1116l-39.9-119.7h80.5L262.8,1116z M-51.2,996.4h50l50.8,152.3h-50L-51.2,996.4z M79.9,1253.3
	c1.2,9.9-7.1,18.4-17.1,17.1c-6.8-0.8-12.3-6.3-13.1-13.1c-1.2-9.9,7.1-18.4,17.1-17.1C73.5,1241,79,1246.5,79.9,1253.3z
	 M232.2,1253.3c1.2,9.9-7.1,18.4-17.1,17.1c-6.8-0.8-12.3-6.3-13.1-13.1c-1.2-9.9,7.1-18.4,17.1-17.1
	C225.9,1241,231.3,1246.5,232.2,1253.3z"/>
<g>
	<path d="M-1042.2,686.9c45-45.3,89.9-90.7,135.2-136.4c-26-44.3-32.7-92.1-17.7-142.2c12-40.1,35.9-72,70.8-95
		c71.8-47.5,165.6-36.6,224.5,25.8c58.3,61.6,63.8,156.1,13.3,224.6c-50.8,69-150.5,95-232.9,45.1c-0.8,0.7-1.7,1.4-2.5,2.3
		c-43.8,43.8-87.5,87.5-131.3,131.3c-0.6,0.6-1.1,1.3-1.7,2c-0.4,0-0.6,0-1,0c-0.4-0.6-0.7-1.3-1.2-1.8
		c-17.6-17.7-35.3-35.5-52.9-53.2c-0.7-0.7-1.7-1.1-2.5-1.7C-1042.2,687.5-1042.2,687.1-1042.2,686.9z M-757.4,607.7
		c81.8,0.1,148.6-66.4,148.7-148.2c0.1-81.5-66.3-148.2-148-148.6c-81.8-0.2-148.7,66.2-148.8,148.1
		C-905.7,540.8-839.2,607.5-757.4,607.7z M-984.7,705c21.3-21.3,43.2-43.2,64.3-64.4c-5.9-5.9-12.2-12.2-18.2-18.2
		c-21.2,21.3-42.9,43.1-64.3,64.5C-997,692.9-990.7,699-984.7,705z M-917.7,602.1c5.9,6,12.1,12.2,18,18.1
		c9.1-9.1,18.5-18.5,27.3-27.5c-6-6-12.1-12.1-18.1-18.2C-899.4,583.5-908.7,593-917.7,602.1z"/>
	<path d="M-983.5,746.9h-3.5l-1-1.6c-0.2-0.3-0.4-0.7-0.6-0.9l-52.9-53.3c-0.2-0.2-0.6-0.4-1-0.7c-0.4-0.2-0.8-0.4-1.2-0.8l-1-0.8
		l0-3.2l0.7-0.7c43.8-44.1,89-89.7,133.8-135c-26.1-45.2-31.8-93.2-17-142.5c12.1-40.5,36.3-72.9,71.8-96.3
		c35.2-23.3,77.4-33.5,118.8-28.7c41.3,4.8,80,24.2,108.9,54.9c59.1,62.5,64.8,158.3,13.5,227.8c-25.6,34.7-63.3,58.9-106.1,68.1
		c-43.8,9.4-89.4,1.8-128.5-21.4c-0.3,0.3-0.7,0.6-1,1l-131.3,131.3c-0.3,0.3-0.5,0.6-0.9,1c-0.2,0.3-0.4,0.6-0.7,0.8L-983.5,746.9z
		 M-1038.7,686.9c0.3,0.2,0.6,0.4,0.8,0.7l52.9,53.3c0,0,0,0,0,0c0.1-0.1,0.2-0.2,0.3-0.3l131.3-131.3c0.9-0.9,1.8-1.7,2.7-2.4
		l1.4-1.2l1.5,0.9c77.6,47,176.3,27.9,229.6-44.4c49.8-67.6,44.3-160.7-13.1-221.4c-57.8-61.3-150.9-71.9-221.3-25.4
		c-34.5,22.8-58,54.3-69.7,93.6c-14.5,48.6-8.6,95.8,17.5,140.2l1,1.7l-1.4,1.4C-949.9,597.4-995,642.9-1038.7,686.9z M-984.7,708.5
		l-1.8-1.8c-3-3-6.1-6-9.1-9c-3.1-3-6.1-6.1-9.1-9.1l-1.8-1.8l1.8-1.8c10.7-10.7,21.4-21.5,32.1-32.3c10.8-10.8,21.5-21.6,32.1-32.3
		l1.8-1.8l21.8,21.8l-1.8,1.8c-21.2,21.3-43.1,43.2-64.3,64.4L-984.7,708.5z M-999.4,686.9c2.4,2.4,4.9,4.9,7.3,7.3
		c2.5,2.4,4.9,4.9,7.4,7.3c20-20,40.7-40.7,60.7-60.9l-14.7-14.7c-10.1,10.1-20.2,20.3-30.4,30.5
		C-979.2,666.5-989.4,676.7-999.4,686.9z M-899.7,623.7l-1.8-1.8c-5.9-5.9-12.1-12.1-18-18.1l-1.7-1.8l30.7-31.1l1.8,1.8
		c6,6.1,12.1,12.2,18,18.1l1.8,1.8l-1.7,1.8c-8.9,9-18.3,18.4-27.4,27.5L-899.7,623.7z M-914.2,602.1c4.8,4.9,9.7,9.8,14.5,14.6
		c7.9-7.9,16-16.1,23.8-23.9c-4.8-4.8-9.7-9.8-14.6-14.7L-914.2,602.1z M-757.2,610.2c-0.1,0-0.1,0-0.2,0h0
		C-840.7,610-908.2,542.1-908,459c0.1-40.2,15.8-78.1,44.5-106.6c28.6-28.5,66.6-44.2,106.9-44c83.1,0.4,150.6,68.1,150.5,151.1
		C-606.3,542.6-674,610.2-757.2,610.2z M-757.4,605.2c0.1,0,0.1,0,0.2,0c80.4,0,145.9-65.3,146-145.7
		c0.1-80.2-65.1-145.7-145.5-146.1c-0.1,0-0.3,0-0.4,0c-38.8,0-75.3,15.1-102.9,42.6c-27.7,27.5-42.9,64.1-43,103
		C-903.2,539.4-837.9,605-757.4,605.2L-757.4,605.2z"/>
</g>
<g>
	<g>
		<g>
			<path class="st0" d="M1885.4-361.3c1.1,0.6,1.9,1.3,2.7,2.1l52.6,25.1l55-25.8c0.5-0.5,1.1-1,1.8-1.4c5.1-3.3,8.1-9,8.1-15.1
				v-82.1c0-30.5-24.8-55.4-55.4-55.4h-17.7c-30.5,0-55.3,24.8-55.3,55.4v82.1C1877.3-370.5,1880.3-364.8,1885.4-361.3z"/>
		</g>
		<g>
			<polygon class="st0" points="1893.8,-322.2 1893.8,-280.1 1989.1,-280.1 1989.1,-322.9 1940.5,-299.9 			"/>
		</g>
		<g>
			<path class="st0" d="M2114.9-173.7c-47.1-38.6-98.5-65.5-113.2-72.8c-1.4-0.6-2.7-1.6-4-2.5h-112.5c-1.3,0.9-2.6,1.9-4.1,2.5
				c-10.2,5-64.2,32.4-113.2,72.8c-4.9,4-7.7,9.9-7.7,16.3v37.6h362.4v-37.6C2122.6-163.8,2119.8-169.7,2114.9-173.7z"/>
		</g>
	</g>
	<g>
		<line class="st1" x1="1864.5" y1="-264.2" x2="1864.5" y2="-98.9"/>
	</g>
	<g>
		<line class="st1" x1="2019.2" y1="-264.2" x2="2019.2" y2="-98.9"/>
	</g>
</g>
<path d="M450.7,376.7c-45.6-37.4-94-63.7-112.7-73.3l-1.1-0.6v-65.3l0.6-0.6c10.2-9.6,16.1-23.2,16.1-37.3v-82.1
	c0-48.9-39.8-88.7-88.7-88.7h-17.7c-48.9,0-88.7,39.8-88.7,88.7v82.1c0,14.2,5.7,27.4,15.9,37.4l0.6,0.6v65.3l-1.1,0.6
	c-18.9,9.7-67.6,36.2-112.7,73.3c-12.6,10.4-19.9,25.7-19.9,42.1v56.3c0,8.1,6.6,14.7,14.7,14.7h399.8c8.1,0,14.7-6.6,14.7-14.7
	v-56.3C470.6,402.4,463.3,387.1,450.7,376.7z M199.3,323.4L199.3,323.4l114.6,0l0.1,0.1v137.2H199.3V323.4z M204.6,300.3v-52.4
	l50.8,24.2l52.6-24.9v53.1H204.6z M188,117.8c0-32.7,26.6-59.4,59.3-59.4h17.7c32.7,0,59.4,26.6,59.4,59.4v82.1
	c0,7.6-3.7,14.5-10,18.5l-0.2,0.1c-0.4,0.2-0.7,0.6-1.2,1l-0.2,0.2l-57.3,26.9l-55-26.2l-0.2-0.2c-0.8-0.8-1.3-1.3-2-1.6l-0.2-0.1
	c-6.3-4.2-10-11.2-10-18.5V117.8z M71,419c0-7.6,3.3-14.7,9.2-19.4c27.7-22.8,56.9-41.5,79.1-54.4v115.4H71V419z M441.4,460.7H354
	V345.8c22.3,13,51,31.5,78.2,53.8c5.8,4.7,9.2,11.8,9.2,19.4V460.7z"/>
</svg>
